{"title":"7 Hours To Go (2016) x264 DVDRip AC3 5.1 ESub -DDR","uid":15913628,"size":1591807008,"categoryP":"video","categoryS":"movies","magnet":"?xt=urn:btih:c084e245afdc9e38599b9f5195892d6254dceb8c&amp;dn=7+Hours+To+Go+%282016%29+x264+DVDRip+AC3+5.1+ESub+-DDR&amp;tr=udp%3A%2F%2Ftracker.leechers-paradise.org%3A6969&amp;tr=udp%3A%2F%2Fzer0day.ch%3A1337&amp;tr=udp%3A%2F%2Fopen.demonii.com%3A1337&amp;tr=udp%3A%2F%2Ftracker.coppersurfer.tk%3A6969&amp;tr=udp%3A%2F%2Fexodus.desync.com%3A6969","seeders":223,"leechers":803,"uploader":"SaM","files":3,"time":1475159991,"description":"** 7 Hours To Go **\r\n\r\n** 2016**\r\n\r\n** 1/3 / DVDrip / x264\r\n\r\nHindi Untouched AC3 5.1 **\r\n\r\n** English Subtitle(s) **\r\n\r\n\r\n\r\n[ SCREENS ]\r\n \nhttps://extraimago.com/image/wUYs \nhttps://extraimago.com/image/wUYn \nhttps://extraimago.com/image/wUYj \nhttps://extraimago.com/image/wUYT \nhttps://extraimago.com/image/wUYN \nhttps://extraimago.com/image/wUY2 \nhttps://extraimago.com/image/wUYw \nhttps://extraimago.com/image/wUYa \nhttps://extraimago.com/image/wUY8 \nhttps://extraimago.com/image/wUCf \nhttps://extraimago.com/image/wUCW \nhttps://extraimago.com/image/wUCA \nhttps://extraimago.com/image/wUCv \nhttps://extraimago.com/image/wUCu \nhttps://extraimago.com/image/wUCV \nhttps://extraimago.com/image/wUC6\r\n\r\n[ Info ]\r\n\r\nSource : DVD9 @ DDR\r\nGeneral\r\nFormat : Matroska\r\nFile size : 1.46 GiB\r\nDuration : 1 h 54 min\r\nOverall bit rate : 1 837 kb/s\r\n\r\nVideo\r\nFormat : AVC\r\nFormat/Info : Advanced Video Codec\r\nFormat profile :   \r\nFormat settings, CABAC : Yes\r\nFormat settings, ReFrames : 16 frames\r\nCodec ID : V_MPEG4/ISO/AVC\r\nDuration : 1 h 54 min\r\nBit rate : 1 385 kb/s\r\nWidth : 720 pixels\r\nHeight : 304 pixels\r\nDisplay aspect ratio : 2.35:1\r\nFrame rate mode : Constant\r\nFrame rate : 23.976 (24000/1001) FPS\r\nColor space : YUV\r\nChroma subsampling : 4:2:0\r\nBit depth : 8 bits\r\nScan type : Progressive\r\nBits/(Pixel*Frame) : 0.264\r\nStream size : 1.10 GiB (75%)\r\nColor primaries : BT.601 NTSC\r\nTransfer characteristics : BT.470 System B, BT.470 System G\r\nMatrix coefficients : BT.601\r\n\r\nAudio\r\nFormat : AC-3\r\nFormat/Info : Audio Coding 3\r\nMode extension : CM (complete main)\r\nFormat settings, Endianness : Big\r\nCodec ID : A_AC3\r\nDuration : 1 h 54 min\r\nBit rate mode : Constant\r\nBit rate : 448 kb/s\r\nChannel(s) : 6 channels\r\nChannel positions : Front: L C R, Side: L R, LFE\r\nSampling rate : 48.0 kHz\r\nFrame rate : 31.250 FPS (1536 spf)\r\nCompression mode : Lossy\r\nDelay relative to video : 15 ms\r\nStream size : 366 MiB (24%)\r\nLanguage : Hindi\r\nDefault : Yes\r\nForced : No\r\n\r\nChapters : YES\r\n\r\n[ A DDR Exclusive Release !!! ]","torrent":{"xt":"urn:btih:c084e245afdc9e38599b9f5195892d6254dceb8c","amp;dn":"7+Hours+To+Go+%282016%29+x264+DVDRip+AC3+5.1+ESub+-DDR","amp;tr":["udp%3A%2F%2Ftracker.leechers-paradise.org%3A6969","udp%3A%2F%2Fzer0day.ch%3A1337","udp%3A%2F%2Fopen.demonii.com%3A1337","udp%3A%2F%2Ftracker.coppersurfer.tk%3A6969","udp%3A%2F%2Fexodus.desync.com%3A6969"],"infoHash":"c084e245afdc9e38599b9f5195892d6254dceb8c","infoHashBuffer":{"type":"Buffer","data":[192,132,226,69,175,220,158,56,89,155,159,81,149,137,45,98,84,220,235,140]},"announce":[],"urlList":[]}}